<svg width="520" height="520" viewBox="0 0 520 520" fill="none" xmlns="http://www.w3.org/2000/svg">
  <rect width="520" height="520" rx="28" fill="#302126"/>
  <rect x="92" y="74" width="42" height="320" rx="10" fill="#A58567"/>
  <rect x="386" y="74" width="42" height="320" rx="10" fill="#A58567"/>
  <rect x="118" y="112" width="280" height="18" rx="9" fill="#C6A989"/>
  <rect x="118" y="196" width="280" height="18" rx="9" fill="#C6A989"/>
  <rect x="118" y="280" width="280" height="18" rx="9" fill="#C6A989"/>
  <rect x="118" y="364" width="280" height="18" rx="9" fill="#C6A989"/>
  <rect x="138" y="78" width="56" height="86" rx="12" fill="#75424C"/>
  <rect x="208" y="88" width="48" height="68" rx="10" fill="#A45D58"/>
  <rect x="272" y="92" width="86" height="60" rx="14" fill="#EEE2D0"/>
  <rect x="138" y="176" width="72" height="56" rx="12" fill="#EEE2D0"/>
  <rect x="226" y="170" width="56" height="72" rx="12" fill="#C7A05C"/>
  <rect x="300" y="176" width="48" height="58" rx="12" fill="#6D3944"/>
  <rect x="150" y="258" width="60" height="60" rx="14" fill="#6D3944"/>
  <rect x="228" y="250" width="108" height="76" rx="14" fill="#EFE0C7"/>
  <circle cx="366" cy="286" r="26" fill="#A45D58"/>
  <rect x="146" y="342" width="96" height="58" rx="14" fill="#EEE2D0"/>
  <rect x="258" y="338" width="74" height="66" rx="14" fill="#75424C"/>
  <rect x="72" y="438" width="190" height="14" rx="7" fill="#C7A05C" fill-opacity="0.5"/>
</svg>
